HIERARCHY
ROOT Hips
{
	OFFSET 0.000000 0.000000 0.000000
	CHANNELS 6 Xposition Yposition Zposition Xrotation Yrotation Zrotation
	JOINT LeftUpLeg_virtual
	{
		OFFSET 0.000000 0.000000 0.000000
		CHANNELS 3 Xrotation Yrotation Zrotation
		JOINT LeftUpLeg
		{
			OFFSET 15.427100 -6.655098 0.678600
			CHANNELS 3 Xrotation Yrotation Zrotation
			JOINT LeftLeg
			{
				OFFSET 4.081073 -39.591068 13.024000
				CHANNELS 3 Xrotation Yrotation Zrotation
				JOINT LeftFoot
				{
					OFFSET -4.081074 -37.707932 -15.979700
					CHANNELS 3 Xrotation Yrotation Zrotation
					JOINT LeftToeBase
					{
						OFFSET 5.346399 -15.068900 20.645000
						CHANNELS 3 Xrotation Yrotation Zrotation
						JOINT LeftToe_End
						{
							OFFSET 2.754700 0.931300 11.300900
							CHANNELS 3 Xrotation Yrotation Zrotation
							End Site
							{
								OFFSET 0 0 0
							}
						}
					}
				}
			}
		}
	}
	JOINT RightUpLeg_virtual
	{
		OFFSET 0.000000 0.000000 0.000000
		CHANNELS 3 Xrotation Yrotation Zrotation
		JOINT RightUpLeg
		{
			OFFSET -15.569500 -6.655098 0.678600
			CHANNELS 3 Xrotation Yrotation Zrotation
			JOINT RightLeg
			{
				OFFSET -4.081825 -39.591045 13.023800
				CHANNELS 3 Xrotation Yrotation Zrotation
				JOINT RightFoot
				{
					OFFSET 4.081824 -37.707954 -15.979600
					CHANNELS 3 Xrotation Yrotation Zrotation
					JOINT RightToeBase
					{
						OFFSET -5.346400 -15.068900 20.645000
						CHANNELS 3 Xrotation Yrotation Zrotation
						JOINT RightToe_End
						{
							OFFSET -2.754700 0.931300 11.300900
							CHANNELS 3 Xrotation Yrotation Zrotation
							End Site
							{
								OFFSET 0 0 0
							}
						}
					}
				}
			}
		}
	}
	JOINT Spine_virtual
	{
		OFFSET 0.000000 0.000000 0.000000
		CHANNELS 3 Xrotation Yrotation Zrotation
		JOINT Spine
		{
			OFFSET -0.279200 12.230698 -2.892100
			CHANNELS 3 Xrotation Yrotation Zrotation
			JOINT Spine1
			{
				OFFSET -0.232667 10.192268 -1.242267
				CHANNELS 3 Xrotation Yrotation Zrotation
				JOINT Spine1_split
				{
					OFFSET -0.232667 10.192268 -1.242267
					CHANNELS 3 Xrotation Yrotation Zrotation
					JOINT Spine2
					{
						OFFSET -0.232667 10.192268 -1.242267
						CHANNELS 3 Xrotation Yrotation Zrotation
						JOINT Neck_virtual
						{
							OFFSET 0.000000 0.000000 0.000000
							CHANNELS 3 Xrotation Yrotation Zrotation
							JOINT Neck
							{
								OFFSET -0.418800 17.814194 8.416900
								CHANNELS 3 Xrotation Yrotation Zrotation
								JOINT Head
								{
									OFFSET 0.000000 7.031097 3.806800
									CHANNELS 3 Xrotation Yrotation Zrotation
									JOINT HeadTop_End
									{
										OFFSET 0.000000 24.646606 12.978600
										CHANNELS 3 Xrotation Yrotation Zrotation
										End Site
										{
											OFFSET 0 0 0
										}
									}
								}
							}
						}
						JOINT LeftShoulder_virtual
						{
							OFFSET 0.000000 0.000000 0.000000
							CHANNELS 3 Xrotation Yrotation Zrotation
							JOINT LeftShoulder
							{
								OFFSET 8.476499 7.247704 -3.868750
								CHANNELS 3 Xrotation Yrotation Zrotation
								JOINT LeftShoulder_split
								{
									OFFSET 8.476499 7.247704 -3.868750
									CHANNELS 3 Xrotation Yrotation Zrotation
									JOINT LeftArm
									{
										OFFSET 9.308998 -2.777710 0.208600
										CHANNELS 3 Xrotation Yrotation Zrotation
										JOINT LeftForeArm
										{
											OFFSET 29.972298 0.000000 0.000000
											CHANNELS 3 Xrotation Yrotation Zrotation
											JOINT LeftHand
											{
												OFFSET 26.026505 0.000000 0.000000
												CHANNELS 3 Xrotation Yrotation Zrotation
												End Site
												{
													OFFSET 0 0 0
												}
											}
										}
									}
								}
							}
						}
						JOINT RightShoulder_virtual
						{
							OFFSET 0.000000 0.000000 0.000000
							CHANNELS 3 Xrotation Yrotation Zrotation
							JOINT RightShoulder
							{
								OFFSET -7.570500 7.247704 -3.868750
								CHANNELS 3 Xrotation Yrotation Zrotation
								JOINT RightShoulder_split
								{
									OFFSET -7.570500 7.247704 -3.868750
									CHANNELS 3 Xrotation Yrotation Zrotation
									JOINT RightArm
									{
										OFFSET -9.308998 -2.777710 0.208500
										CHANNELS 3 Xrotation Yrotation Zrotation
										JOINT RightForeArm
										{
											OFFSET -29.972300 0.000000 0.000000
											CHANNELS 3 Xrotation Yrotation Zrotation
											JOINT RightHand
											{
												OFFSET -26.026505 0.000000 0.000000
												CHANNELS 3 Xrotation Yrotation Zrotation
												End Site
												{
													OFFSET 0 0 0
												}
											}
										}
									}
								}
							}
						}
					}
				}
			}
		}
	}
}
MOTION
Frames: 11
Frame Time: 0.03333333
-1.949557 77.944412 9.942532 0.000000 0.000000 0.000000 11.028794 -78.104525 10.155768 -30.744167 45.863481 52.393114 54.658544 5.502385 -11.741814 -26.003338 6.889080 4.010222 -8.698076 2.163567 -4.444591 0.000000 0.000000 0.000000 5.279510 -67.488867 5.457112 -11.806688 -5.294468 -33.346332 19.414463 6.129594 -2.003693 -16.029079 3.964086 32.798804 -12.537923 0.867548 -0.917906 0.000000 0.000000 0.000000 -4.579836 -74.413695 -2.231670 11.970024 -11.939703 12.003568 -3.806713 -10.813691 5.020679 -1.048616 -2.459681 0.875152 0.000000 0.000000 0.000000 -8.570272 -11.151634 5.233724 3.357788 39.247814 1.556962 10.417511 23.703832 -5.261317 0.000000 0.000000 0.000000 -9.509590 -11.109717 5.227149 5.377105 -19.645929 17.719835 8.146126 1.709493 -6.424706 -2.590856 -14.942610 5.690467 0.271863 -34.202360 -2.000711 0.000000 0.000000 0.000000 -11.423341 -11.580383 4.936664 4.380357 -20.102666 8.440488 5.220785 -0.499765 -1.028877 -55.838142 3.530749 -10.289057 -10.102816 50.127346 13.616770 0.000000 0.000000 0.000000 
-2.878392 78.908936 11.765324 0.000000 0.000000 0.000000 2.899411 -76.259506 2.616117 -22.784010 47.954065 46.271752 49.039013 8.006507 -10.027450 -30.304877 10.117617 7.126357 -4.586395 2.644509 -7.266683 0.000000 0.000000 0.000000 -0.132354 -65.588920 0.843885 -7.942149 -5.311132 -32.545817 19.436965 3.795972 -1.698233 -19.907447 -0.863663 30.026574 -13.016084 -0.214168 0.548443 0.000000 0.000000 0.000000 -9.033044 -72.087743 -7.015540 10.612925 -11.840660 11.628428 -4.529824 -11.105455 5.076967 -0.260267 -2.167017 0.973299 0.000000 0.000000 0.000000 -9.765095 -11.542961 5.199803 4.576580 35.171636 4.106211 10.961638 21.044206 -2.683900 0.000000 0.000000 0.000000 -11.025325 -11.389013 5.084920 6.552539 -21.025989 26.196943 7.958313 1.132794 -6.951895 -6.237568 -25.114204 9.936774 1.768334 -26.611882 0.563939 0.000000 0.000000 0.000000 -13.163162 -11.990048 4.874120 2.464742 -20.207890 6.249612 5.208899 -1.496147 -0.375329 -59.694494 6.326413 -13.072977 -8.620039 48.511630 14.085278 0.000000 0.000000 0.000000 
-3.637566 79.582726 14.012394 0.000000 0.000000 0.000000 -3.734121 -73.126908 -3.054857 -14.805442 48.136492 39.769292 44.654455 7.322590 -7.287320 -31.418085 11.759144 4.675365 -2.464760 2.802345 -9.513341 0.000000 0.000000 0.000000 -4.912328 -63.916255 -2.844053 -4.907710 -3.356148 -31.969954 21.834315 -0.543797 -1.220345 -21.722064 -6.374426 22.316549 -11.994915 -2.041311 4.698108 0.000000 0.000000 0.000000 -9.994889 -68.855745 -8.336947 9.302993 -11.570672 10.905838 -5.428840 -11.046863 4.795373 1.421731 -1.901579 0.440144 0.000000 0.000000 0.000000 -10.907584 -11.555210 4.884758 6.662937 30.817240 5.822309 11.160243 19.197541 -0.752022 0.000000 0.000000 0.000000 -12.626048 -11.445438 4.772970 7.150660 -20.465074 34.877043 6.850572 1.305921 -7.220775 -13.341478 -34.404240 10.786438 3.154823 -21.178402 2.869229 0.000000 0.000000 0.000000 -14.966162 -12.158942 4.609311 0.390529 -20.376759 3.096565 4.216309 -2.495872 0.204737 -63.611526 8.714193 -14.806236 -5.768453 46.508093 13.344260 0.000000 0.000000 0.000000 
-4.253898 80.021370 16.504019 0.000000 0.000000 0.000000 -7.282507 -68.785613 -5.755759 -8.028303 47.253646 34.179971 41.236137 4.502003 -4.400451 -29.588499 12.116486 -1.971029 -3.013460 2.786637 -10.513703 0.000000 0.000000 0.000000 -8.257445 -62.178053 -5.185564 -2.823055 0.158031 -31.817419 26.260990 -5.522704 -0.457909 -18.871220 -11.311478 12.946159 -15.112581 -4.460984 9.977075 0.000000 0.000000 0.000000 -8.705214 -64.948187 -7.411935 7.934251 -11.170650 9.727931 -6.533702 -10.620649 4.036430 2.325591 -1.981330 -0.116235 0.000000 0.000000 0.000000 -11.895711 -11.131389 4.123856 9.163413 26.411360 6.753425 11.414641 18.025294 0.200732 0.000000 0.000000 0.000000 -14.186123 -11.162156 4.152861 6.606994 -18.194500 42.641984 5.350392 3.093745 -6.617813 -24.801679 -40.983973 7.429973 3.887648 -19.290937 4.461380 0.000000 0.000000 0.000000 -16.684837 -12.007228 3.938182 -1.832678 -20.812368 -1.743432 2.385882 -2.996926 0.348094 -66.777448 9.111877 -15.935673 -2.308237 44.935640 11.670898 0.000000 0.000000 0.000000 
-4.814035 80.027260 18.989262 0.000000 0.000000 0.000000 -8.360203 -63.714798 -6.425303 -3.157523 46.404759 30.414576 38.227609 1.223160 -2.162974 -26.671433 11.098044 -9.768646 -6.596127 2.583752 -9.775761 0.000000 0.000000 0.000000 -9.052451 -59.473360 -5.750187 -2.514156 4.318410 -31.877029 32.142935 -8.969002 0.465084 -9.906377 -14.882212 7.698041 -25.107132 -7.389007 13.489244 0.000000 0.000000 0.000000 -7.031519 -59.924467 -5.794174 6.623521 -10.749866 8.004157 -7.711418 -9.822089 2.729477 2.738990 -2.854130 -0.247487 0.000000 0.000000 0.000000 -12.700125 -10.282624 2.868245 11.406342 21.927895 6.920919 12.116943 16.999981 0.147785 0.000000 0.000000 0.000000 -15.471137 -10.491393 3.109298 4.741708 -14.666315 48.538364 4.028773 5.180217 -4.834584 -38.452005 -43.922553 0.821956 3.746216 -20.992839 5.073072 0.000000 0.000000 0.000000 -18.150072 -11.371215 2.735729 -4.302583 -21.216478 -8.778276 0.192628 -3.132984 0.732940 -69.553380 7.376347 -16.846986 0.703117 43.623950 9.447759 0.000000 0.000000 0.000000 
-5.266110 79.341270 21.269650 0.000000 0.000000 0.000000 -7.537851 -58.192235 -6.009649 -0.897471 46.585230 29.092337 35.746096 -0.938550 -1.089853 -25.413624 9.280718 -15.090226 -10.633975 1.977204 -8.109494 0.000000 0.000000 0.000000 -7.572352 -54.985386 -5.034865 -4.462933 7.579770 -31.367261 39.249682 -9.304039 1.752543 3.622905 -14.813920 8.874465 -40.501123 -9.628019 13.066964 0.000000 0.000000 0.000000 -5.525063 -53.541822 -4.185037 5.394731 -10.279722 5.841295 -8.760338 -8.644889 1.007447 2.265604 -3.946906 -0.303956 0.000000 0.000000 0.000000 -13.425921 -9.010794 1.145136 12.969334 17.358005 6.409089 13.554141 15.737564 -0.603946 0.000000 0.000000 0.000000 -16.262626 -9.419731 1.599752 2.006288 -10.794685 51.923556 3.114009 6.659843 -2.591949 -49.618763 -43.597340 -6.222140 2.404624 -26.764149 4.381402 0.000000 0.000000 0.000000 -19.187277 -10.225299 1.031237 -7.090008 -21.198973 -17.900469 -1.959783 -2.802754 1.286469 -72.568827 4.156676 -17.153569 2.253331 42.509363 7.185371 0.000000 0.000000 0.000000 
-5.595753 78.285774 22.966373 0.000000 0.000000 0.000000 -5.367457 -52.268610 -5.069208 -2.742873 47.066192 31.318313 35.068735 -2.511478 -0.829752 -25.579200 6.914984 -17.884248 -11.653367 0.910215 -6.635014 0.000000 0.000000 0.000000 -4.984340 -47.879985 -4.126011 -9.621803 7.665262 -29.870340 48.106423 -6.305421 3.023235 16.755183 -9.372001 14.208410 -55.080486 -8.840242 9.196999 0.000000 0.000000 0.000000 -3.874112 -45.648948 -2.935463 4.369797 -9.673331 3.545139 -9.379364 -7.111117 -0.834585 0.940130 -5.236094 0.210658 0.000000 0.000000 0.000000 -13.928166 -7.433748 -0.798849 13.250558 12.646248 5.280781 15.539145 13.708532 -1.518953 0.000000 0.000000 0.000000 -16.452006 -7.935841 -0.226384 -0.939614 -7.134699 52.656462 3.322459 6.462689 -0.363245 -56.111520 -41.290553 -12.206599 0.015898 -36.135082 2.296600 0.000000 0.000000 0.000000 -19.509404 -8.586842 -0.886334 -10.035208 -20.237185 -28.642115 -3.531874 -1.919605 2.928224 -76.183664 1.055025 -16.762789 1.540388 42.859751 5.537928 0.000000 0.000000 0.000000 
-5.967894 77.031960 24.196102 0.000000 0.000000 0.000000 -2.607574 -45.251946 -4.266566 -9.174699 45.807838 37.230162 37.108042 -4.761920 -0.725047 -25.281438 3.736463 -20.003860 -9.820480 -0.423992 -5.012223 0.000000 0.000000 0.000000 -2.281775 -38.305050 -3.865210 -18.451322 3.553623 -27.670213 58.423492 -1.060237 4.094774 24.307639 -0.298745 19.978006 -62.515185 -4.554106 4.139800 0.000000 0.000000 0.000000 -2.158508 -35.967906 -2.503466 3.832692 -8.927687 1.451952 -9.370793 -5.349005 -2.422275 -0.138137 -6.256720 1.057226 0.000000 0.000000 0.000000 -14.055883 -5.753429 -2.575969 12.085078 7.770813 3.507647 17.814887 10.762008 -2.182803 0.000000 0.000000 0.000000 -15.963209 -6.285053 -2.009355 -3.449187 -4.022254 50.887696 4.397295 5.175250 0.595979 -58.264970 -38.350115 -16.771625 -3.270375 -47.570529 -1.158357 0.000000 0.000000 0.000000 -18.993593 -6.709773 -2.641210 -12.598711 -17.991497 -39.539791 -4.348857 -1.037336 5.370130 -80.368357 -0.977642 -15.173842 -1.480999 45.388461 4.848638 0.000000 0.000000 0.000000 
-6.628170 76.086372 24.729351 0.000000 0.000000 0.000000 0.352182 -36.430754 -4.153602 -18.040830 40.958083 44.307642 41.090131 -7.923636 -0.141998 -23.582818 -0.045703 -22.122800 -7.383348 -1.682364 -2.996021 0.000000 0.000000 0.000000 -0.230652 -26.855223 -4.623470 -29.741290 -4.315027 -26.382173 68.216214 4.655343 4.666488 24.879931 8.488581 24.846864 -61.670898 1.323026 -1.164242 0.000000 0.000000 0.000000 0.234178 -24.884403 -3.006115 3.902870 -7.986094 -0.084816 -8.656854 -3.597589 -3.386066 -0.902183 -6.131351 1.689895 0.000000 0.000000 0.000000 -13.641133 -4.183745 -3.820674 9.331754 2.913815 1.447749 19.624621 7.241022 -2.346991 0.000000 0.000000 0.000000 -14.919674 -4.670047 -3.338675 -4.996095 -1.988683 47.086689 6.601993 3.965955 1.215838 -56.859891 -34.951758 -19.680900 -7.014486 -59.386835 -5.504443 0.000000 0.000000 0.000000 -17.555425 -4.928451 -3.883702 -14.233082 -14.903299 -49.161014 -4.372328 -0.058848 7.785593 -83.909455 -1.855648 -12.451880 -6.384828 50.225523 5.467250 0.000000 0.000000 0.000000 
-7.702298 75.762276 24.743078 0.000000 0.000000 0.000000 3.404453 -24.912379 -4.908915 -26.323008 32.456144 49.160201 45.015215 -10.909423 1.013094 -20.823382 -3.799627 -23.082331 -6.209667 -2.741023 -0.791840 0.000000 0.000000 0.000000 1.521394 -14.360263 -6.086521 -41.846803 -13.493478 -27.221490 75.548961 8.468206 4.874011 19.967346 13.213760 28.256161 -53.405765 6.435149 -6.502870 0.000000 0.000000 0.000000 3.292009 -13.037949 -4.542054 4.591984 -6.957110 -0.918240 -7.280569 -2.049819 -3.528524 -1.146700 -5.566319 2.296485 0.000000 0.000000 0.000000 -12.476394 -2.940953 -4.249214 5.072398 -1.752106 -0.509395 20.443634 3.448035 -2.253169 0.000000 0.000000 0.000000 -13.367259 -3.287360 -3.871257 -5.392124 -1.233097 41.724007 9.508139 3.222640 1.850622 -52.710090 -31.305025 -20.743454 -9.801203 -68.738546 -9.100066 0.000000 0.000000 0.000000 -15.301287 -3.447062 -4.350158 -14.630646 -11.471536 -56.245518 -3.059080 0.692478 9.460743 -85.755375 -2.009645 -8.984978 -12.396114 55.343643 7.243902 0.000000 0.000000 0.000000 
-9.274808 75.858017 24.440624 0.000000 0.000000 0.000000 6.615823 -10.807752 -6.731469 -32.851277 22.068760 50.313567 47.171076 -12.250372 2.165402 -17.401201 -6.232402 -22.241041 -5.794950 -3.388075 0.309594 0.000000 0.000000 0.000000 3.649223 -2.162057 -7.974323 -52.650872 -20.431872 -29.626874 78.213500 9.552250 5.300470 11.490600 12.297108 28.074374 -38.713010 8.620780 -10.863224 0.000000 0.000000 0.000000 6.777928 -1.603895 -6.996879 5.761814 -5.903525 -1.149829 -5.348125 -0.859878 -2.848989 -0.913865 -4.343300 2.383935 0.000000 0.000000 0.000000 -10.584963 -2.077948 -3.751445 -0.268382 -6.354312 -1.495735 20.139569 0.040111 -2.509769 0.000000 0.000000 0.000000 -11.423350 -2.283181 -3.493121 -4.811440 -1.715198 35.378160 12.371036 3.927556 1.463364 -46.930991 -27.949540 -21.075011 -9.367010 -73.816928 -9.167261 0.000000 0.000000 0.000000 -12.473560 -2.380106 -3.982948 -13.727896 -8.290619 -59.999763 -0.863592 1.132041 8.475199 -85.682066 -2.476570 -5.273895 -17.392064 57.561317 8.367005 0.000000 0.000000 0.000000 
